Coordinates
version=1
nRows=12
nColumns=24
inDegrees=yes

Units are S.I. units (second, meters, Newtons, ...)
Angles are in degrees.

endheader
time	pelvis_tilt	pelvis_list	pelvis_rotation	pelvis_tx	pelvis_ty	pelvis_tz	hip_flexion_r	hip_adduction_r	hip_rotation_r	knee_angle_r	ankle_angle_r	subtalar_angle_r	mtp_angle_r	hip_flexion_l	hip_adduction_l	hip_rotation_l	knee_angle_l	ankle_angle_l	subtalar_angle_l	mtp_angle_l	lumbar_extension	lumbar_bending	lumbar_rotation
      0.01000000	     49.73469658	      3.10111513	     -0.06363084	      0.74628981	      0.96273380	     -0.27272825	     17.55068891	    -14.56239833	      6.97777270	    -62.74103034	      6.83858074	     16.06365042	    -35.10294102	     25.83330943	     -4.21264037	      0.69426895	     -5.52086732	    -13.63756896	     13.63211240	    -17.87632768	      0.00000000	      0.00000000	      0.00000000
      0.02000000	     49.60886782	      2.99669587	     -0.03837985	      0.74611114	      0.96255358	     -0.27276893	     17.65236524	    -14.44322401	      6.93457725	    -62.71047611	      6.61384896	     15.77241745	    -36.29210070	     26.00639938	     -4.31176911	      0.79331918	     -5.59228378	    -13.59078354	     13.67914076	    -17.99319907	      0.00000000	      0.00000000	      0.00000000
      0.03000000	     49.55585821	      2.94999113	     -0.02821441	      0.74605058	      0.96248346	     -0.27279299	     17.69857696	    -14.39433335	      6.91269117	    -62.77391327	      6.69514592	     15.72451811	    -36.14723585	     26.07485969	     -4.35661906	      0.84194103	     -5.62132326	    -13.56938038	     13.70541895	    -18.03122043	      0.00000000	      0.00000000	      0.00000000
      0.04000000	     49.55587076	      2.94457444	     -0.02516884	      0.74607925	      0.96248916	     -0.27278879	     17.71185592	    -14.39233609	      6.90423621	    -62.89203689	      6.96158001	     15.84353486	    -35.10146953	     26.07030028	     -4.36294915	      0.85472655	     -5.62371390	    -13.56738432	     13.71773426	    -18.01195967	      0.00000000	      0.00000000	      0.00000000
      0.05000000	     49.58285386	      2.96161242	     -0.02376062	      0.74612982	      0.96252638	     -0.27277275	     17.71103956	    -14.41421779	      6.90175062	    -63.02144699	      7.27790023	     16.04130264	    -33.66329989	     26.03029313	     -4.34773243	      0.84742972	     -5.61496485	    -13.57785190	     13.72306488	    -17.95999487	      0.00000000	      0.00000000	      0.00000000
      0.06000000	     49.61153282	      2.98518288	     -0.02242569	      0.74614881	      0.96256094	     -0.27277150	     17.70653467	    -14.44324688	      6.90049498	    -63.12557686	      7.53217737	     16.23883307	    -32.29796020	     25.98868725	     -4.32525588	      0.83294149	     -5.60594292	    -13.59430152	     13.72650433	    -17.89728201	      0.00000000	      0.00000000	      0.00000000
      0.07000000	     49.62423757	      3.00519348	     -0.02161770	      0.74613869	      0.96256991	     -0.27279019	     17.70297874	    -14.46946620	      6.89868188	    -63.18031776	      7.65774940	     16.37874247	    -31.35159712	     25.96795001	     -4.30557692	      0.81951760	     -5.60219920	    -13.61149799	     13.73049098	    -17.84024586	      0.00000000	      0.00000000	      0.00000000
      0.08000000	     49.61445546	      3.01724119	     -0.02165165	      0.74613248	      0.96254472	     -0.27281210	     17.70335775	    -14.48789404	      6.89655794	    -63.17620100	      7.63883530	     16.43033236	    -31.01474373	     25.97572791	     -4.29411647	      0.81074251	     -5.60530909	    -13.62575891	     13.73511360	    -17.79898466	      0.00000000	      0.00000000	      0.00000000
      0.09000000	     49.58623915	      3.02063414	     -0.02189029	      0.74614231	      0.96250847	     -0.27282814	     17.71067348	    -14.49691936	      6.89538883	    -63.11781865	      7.50188801	     16.38890345	    -31.31956493	     26.00685116	     -4.29204657	      0.80663097	     -5.61446149	    -13.63493783	     13.73903904	    -17.77787370	      0.00000000	      0.00000000	      0.00000000
      0.10000000	     49.54991063	      3.01641033	     -0.02123750	      0.74615057	      0.96249829	     -0.27284845	     17.72638301	    -14.49756062	      6.89672982	    -63.02074065	      7.29769584	     16.27103187	    -32.16359984	     26.04919694	     -4.29753759	      0.80521352	     -5.62759639	    -13.63824401	     13.74058740	    -17.77691585	      0.00000000	      0.00000000	      0.00000000
      0.11000000	     49.51603996	      3.00666209	     -0.01918453	      0.74614282	      0.96252181	     -0.27287860	     17.74768126	    -14.49275898	      6.90171948	    -62.90672768	      7.08133403	     16.10736239	    -33.35137847	     26.09034238	     -4.30749281	      0.80405726	     -5.64210070	    -13.63598057	     13.73860391	    -17.79331034	      0.00000000	      0.00000000	      0.00000000
      0.12000000	     49.49099192	      2.99474943	     -0.01645303	      0.74612041	      0.96255577	     -0.27290880	     17.76712112	    -14.48596790	      6.91027245	    -62.79835994	      6.89680874	     15.93422436	    -34.64456184	     26.12212845	     -4.31894527	      0.80137719	     -5.65534194	    -13.62922644	     13.73294762	    -17.82287049	      0.00000000	      0.00000000	      0.00000000
